# Blender v2.80 (sub 74) OBJ File: ''
# www.blender.org
mtllib dessert.mtl
o BezierCurve
v -0.502924 0.439244 -0.770926
v -0.414318 0.439244 -0.854013
v -0.324603 0.439244 -0.926902
v -0.233229 0.439244 -0.989739
v -0.139647 0.439244 -1.042668
v -0.043305 0.439244 -1.085835
v 0.056345 0.439244 -1.119387
v 0.159853 0.439244 -1.143468
v 0.267771 0.439244 -1.158224
v 0.380647 0.439244 -1.163802
v 0.499032 0.439244 -1.160346
v 0.623477 0.439244 -1.148003
v 0.754530 0.439244 -1.126917
v 0.892742 0.439244 -1.097235
v 1.038663 0.439244 -1.059102
v 1.192842 0.439244 -1.012663
v 1.355832 0.439244 -0.958065
v 1.528180 0.439244 -0.895453
v 1.692191 0.439244 -0.848324
v 1.851630 0.439244 -0.829520
v 2.006119 0.439244 -0.835647
v 2.155280 0.439244 -0.863312
v 2.298737 0.439244 -0.909121
v 2.436111 0.439244 -0.969679
v 2.567025 0.439244 -1.041593
v 2.691103 0.439244 -1.121469
v 2.807966 0.439244 -1.205913
v 2.917237 0.439244 -1.291531
v 3.018539 0.439244 -1.374929
v 3.111494 0.439244 -1.452713
v 3.195725 0.439244 -1.521489
v 3.270855 0.439244 -1.577863
v 3.336505 0.439244 -1.618442
v 3.392300 0.439244 -1.639831
v 3.437861 0.439244 -1.638636
v 3.473202 0.439244 -1.619864
v 3.499188 0.439244 -1.591331
v 3.516718 0.439244 -1.553857
v 3.526689 0.439244 -1.508260
v 3.530001 0.439244 -1.455361
v 3.527550 0.439244 -1.395980
v 3.520237 0.439244 -1.330936
v 3.508959 0.439244 -1.261049
v 3.494614 0.439244 -1.187139
v 3.478102 0.439244 -1.110025
v 3.460320 0.439244 -1.030528
v 3.442166 0.439244 -0.949466
v 3.424540 0.439244 -0.867660
v 3.408339 0.439244 -0.785930
v 3.394462 0.439244 -0.705095
v 3.383807 0.439244 -0.625975
v 3.377273 0.439244 -0.549389
v 3.376454 0.439244 -0.472081
v 3.381947 0.439244 -0.390517
v 3.393156 0.439244 -0.305105
v 3.409485 0.439244 -0.216255
v 3.430338 0.439244 -0.124372
v 3.455119 0.439244 -0.029866
v 3.483231 0.439244 0.066855
v 3.514079 0.439244 0.165384
v 3.547065 0.439244 0.265313
v 3.581595 0.439244 0.366234
v 3.617072 0.439244 0.467738
v 3.652899 0.439244 0.569419
v 3.688481 0.439244 0.670867
v 3.723221 0.439244 0.771675
v 3.756523 0.439244 0.871435
v 3.787791 0.439244 0.969739
v 3.816429 0.439244 1.066179
v 3.840524 0.439244 1.159550
v 3.859009 0.439244 1.248927
v 3.872553 0.439244 1.334322
v 3.881829 0.439244 1.415750
v 3.887507 0.439244 1.493222
v 3.890260 0.439244 1.566753
v 3.890756 0.439244 1.636354
v 3.889668 0.439244 1.702039
v 3.887668 0.439244 1.763820
v 3.885425 0.439244 1.821711
v 3.883611 0.439244 1.875725
v 3.882897 0.439244 1.925874
v 3.883955 0.439244 1.972172
v 3.887455 0.439244 2.014631
v 3.894068 0.439244 2.053265
v 3.904466 0.439244 2.088086
v 3.919319 0.439244 2.119108
v 3.933322 0.439244 2.145359
v 3.941040 0.439244 2.166301
v 3.942950 0.439244 2.182592
v 3.939528 0.439244 2.194894
v 3.931251 0.439244 2.203865
v 3.918597 0.439244 2.210165
v 3.902043 0.439244 2.214455
v 3.882065 0.439244 2.217393
v 3.859140 0.439244 2.219640
v 3.833746 0.439244 2.221856
v 3.806360 0.439244 2.224700
v 3.777457 0.439244 2.228833
v 3.747516 0.439244 2.234913
v 3.717013 0.439244 2.243601
v 3.686426 0.439244 2.255556
v 3.656231 0.439244 2.271438
v 3.626904 0.439244 2.291908
v 3.598723 0.439244 2.316689
v 3.571476 0.439244 2.344822
v 3.544904 0.439244 2.375942
v 3.518752 0.439244 2.409683
v 3.492763 0.439244 2.445681
v 3.466679 0.439244 2.483568
v 3.440245 0.439244 2.522979
v 3.413204 0.439244 2.563550
v 3.385298 0.439244 2.604914
v 3.356272 0.439244 2.646706
v 3.325869 0.439244 2.688560
v 3.293831 0.439244 2.730110
v 3.259902 0.439244 2.770992
v 3.223826 0.439244 2.810840
v 3.185346 0.439244 2.849287
v 3.144205 0.439244 2.885969
v 3.100146 0.439244 2.920519
v 3.055251 0.439244 2.951442
v 3.012877 0.439244 2.976876
v 2.972587 0.439244 2.997441
v 2.933945 0.439244 3.013756
v 2.896515 0.439244 3.026440
v 2.859859 0.439244 3.036114
v 2.823542 0.439244 3.043396
v 2.787126 0.439244 3.048906
v 2.750175 0.439244 3.053263
v 2.712253 0.439244 3.057087
v 2.672923 0.439244 3.060998
v 2.631749 0.439244 3.065614
v 2.588293 0.439244 3.071556
v 2.542120 0.439244 3.079442
v 2.492793 0.439244 3.089893
v 2.439875 0.439244 3.103527
v 2.382930 0.439244 3.120964
v 2.327682 0.439244 3.142485
v 2.279638 0.439244 3.167555
v 2.238038 0.439244 3.195573
v 2.202122 0.439244 3.225938
v 2.171129 0.439244 3.258047
v 2.144299 0.439244 3.291300
v 2.120872 0.439244 3.325094
v 2.100086 0.439244 3.358830
v 2.081182 0.439244 3.391904
v 2.063399 0.439244 3.423716
v 2.045977 0.439244 3.453665
v 2.028154 0.439244 3.481148
v 2.009172 0.439244 3.505563
v 1.988268 0.439244 3.526312
v 1.964684 0.439244 3.542790
v 1.937658 0.439244 3.554397
v 1.906430 0.439244 3.560531
v 1.875038 0.439244 3.562068
v 1.836135 0.439244 3.561586
v 1.790440 0.439244 3.559275
v 1.738669 0.439244 3.555326
v 1.681538 0.439244 3.549930
v 1.619765 0.439244 3.543276
v 1.554065 0.439244 3.535555
v 1.485157 0.439244 3.526956
v 1.413757 0.439244 3.517671
v 1.340582 0.439244 3.507890
v 1.266348 0.439244 3.497802
v 1.191773 0.439244 3.487598
v 1.117573 0.439244 3.477469
v 1.044466 0.439244 3.467604
v 0.973167 0.439244 3.458194
v 0.904394 0.439244 3.449428
v 0.838864 0.439244 3.441498
v 0.771405 0.439244 3.430681
v 0.696698 0.439244 3.413486
v 0.615239 0.439244 3.390453
v 0.527523 0.439244 3.362119
v 0.434046 0.439244 3.329024
v 0.335303 0.439244 3.291705
v 0.231790 0.439244 3.250703
v 0.124002 0.439244 3.206554
v 0.012434 0.439244 3.159799
v -0.102418 0.439244 3.110975
v -0.220058 0.439244 3.060621
v -0.339991 0.439244 3.009276
v -0.461721 0.439244 2.957478
v -0.584753 0.439244 2.905767
v -0.708592 0.439244 2.854680
v -0.832742 0.439244 2.804756
v -0.956707 0.439244 2.756535
v -1.079643 0.439244 2.708791
v -1.201406 0.439244 2.660104
v -1.322553 0.439244 2.610720
v -1.443641 0.439244 2.560885
v -1.565229 0.439244 2.510844
v -1.687874 0.439244 2.460843
v -1.812132 0.439244 2.411128
v -1.938561 0.439244 2.361943
v -2.067719 0.439244 2.313534
v -2.200163 0.439244 2.266147
v -2.336451 0.439244 2.220027
v -2.477139 0.439244 2.175421
v -2.622785 0.439244 2.132572
v -2.773947 0.439244 2.091728
v -2.931182 0.439244 2.053133
v -3.095047 0.439244 2.017034
v -3.266098 0.439244 1.983674
v -3.430086 0.439244 1.952360
v -3.592273 0.439244 1.918755
v -3.753165 0.439244 1.882994
v -3.913268 0.439244 1.845212
v -4.073087 0.439244 1.805545
v -4.233126 0.439244 1.764129
v -4.393892 0.439244 1.721100
v -4.555889 0.439244 1.676592
v -4.719622 0.439244 1.630741
v -4.885597 0.439244 1.583683
v -5.054319 0.439244 1.535553
v -5.226294 0.439244 1.486488
v -5.402025 0.439244 1.436622
v -5.582019 0.439244 1.386091
v -5.766781 0.439244 1.335030
v -5.956816 0.439244 1.283575
v -6.152628 0.439244 1.231862
v -6.347129 0.439244 1.176407
v -6.533633 0.439244 1.113967
v -6.713256 0.439244 1.045041
v -6.887114 0.439244 0.970125
v -7.056320 0.439244 0.889718
v -7.221992 0.439244 0.804317
v -7.385242 0.439244 0.714420
v -7.547189 0.439244 0.620525
v -7.708946 0.439244 0.523129
v -7.871629 0.439244 0.422730
v -8.036353 0.439244 0.319825
v -8.204233 0.439244 0.214913
v -8.376386 0.439244 0.108491
v -8.553926 0.439244 0.001057
v -8.737967 0.439244 -0.106892
v -8.929626 0.439244 -0.214858
v -9.130018 0.439244 -0.322343
v -9.298898 0.439244 -0.419491
v -9.399520 0.439244 -0.498008
v -9.438251 0.439244 -0.559739
v -9.421459 0.439244 -0.606531
v -9.355510 0.439244 -0.640229
v -9.246770 0.439244 -0.662679
v -9.101606 0.439244 -0.675727
v -8.926386 0.439244 -0.681218
v -8.727475 0.439244 -0.680998
v -8.511241 0.439244 -0.676914
v -8.284050 0.439244 -0.670810
v -8.052268 0.439244 -0.664533
v -7.822263 0.439244 -0.659927
v -7.600401 0.439244 -0.658841
v -7.393049 0.439244 -0.663117
v -7.206573 0.439244 -0.674604
v -7.047341 0.439244 -0.695145
v -6.898036 0.439244 -0.711558
v -6.737545 0.439244 -0.710478
v -6.566536 0.439244 -0.693478
v -6.385680 0.439244 -0.662135
v -6.195644 0.439244 -0.618024
v -5.997098 0.439244 -0.562718
v -5.790712 0.439244 -0.497793
v -5.577155 0.439244 -0.424825
v -5.357096 0.439244 -0.345387
v -5.131204 0.439244 -0.261054
v -4.900148 0.439244 -0.173402
v -4.664598 0.439244 -0.084006
v -4.425222 0.439244 0.005560
v -4.182691 0.439244 0.093721
v -3.937672 0.439244 0.178902
v -3.690836 0.439244 0.259527
v -3.442853 0.439244 0.334023
v -3.210812 0.439244 0.398375
v -3.009245 0.439244 0.450432
v -2.834978 0.439244 0.491413
v -2.684838 0.439244 0.522537
v -2.555650 0.439244 0.545021
v -2.444241 0.439244 0.560085
v -2.347437 0.439244 0.568947
v -2.262065 0.439244 0.572825
v -2.184952 0.439244 0.572938
v -2.112923 0.439244 0.570505
v -2.042804 0.439244 0.566744
v -1.971423 0.439244 0.562874
v -1.895606 0.439244 0.560113
v -1.812178 0.439244 0.559679
v -1.717967 0.439244 0.562792
v -1.609798 0.439244 0.570670
v -1.484499 0.439244 0.584531
v -1.361843 0.439244 0.594828
v -1.262198 0.439244 0.591987
v -1.183279 0.439244 0.577186
v -1.122800 0.439244 0.551604
v -1.078477 0.439244 0.516419
v -1.048023 0.439244 0.472809
v -1.029153 0.439244 0.421954
v -1.019583 0.439244 0.365032
v -1.017027 0.439244 0.303221
v -1.019198 0.439244 0.237700
v -1.023813 0.439244 0.169647
v -1.028586 0.439244 0.100241
v -1.031232 0.439244 0.030660
v -1.029464 0.439244 -0.037917
v -1.020999 0.439244 -0.104311
v -1.003549 0.439244 -0.167345
v -0.974832 0.439244 -0.225839
v -0.943906 0.439244 -0.275846
v -0.920417 0.439244 -0.315313
v -0.902957 0.439244 -0.345898
v -0.890117 0.439244 -0.369261
v -0.880490 0.439244 -0.387062
v -0.872667 0.439244 -0.400961
v -0.865240 0.439244 -0.412616
v -0.856800 0.439244 -0.423688
v -0.845940 0.439244 -0.435836
v -0.831250 0.439244 -0.450721
v -0.811324 0.439244 -0.470001
v -0.784752 0.439244 -0.495336
v -0.750127 0.439244 -0.528385
v -0.706040 0.439244 -0.570810
v -0.651082 0.439244 -0.624268
v -0.583846 0.439244 -0.690420
vn 0.0000 1.0000 0.0000
usemtl None
s off
f 33//1 35//1 34//1
f 33//1 36//1 35//1
f 33//1 37//1 36//1
f 32//1 37//1 33//1
f 32//1 38//1 37//1
f 31//1 38//1 32//1
f 31//1 39//1 38//1
f 30//1 39//1 31//1
f 30//1 40//1 39//1
f 30//1 41//1 40//1
f 29//1 41//1 30//1
f 29//1 42//1 41//1
f 28//1 42//1 29//1
f 28//1 43//1 42//1
f 27//1 43//1 28//1
f 27//1 44//1 43//1
f 26//1 44//1 27//1
f 26//1 45//1 44//1
f 9//1 11//1 10//1
f 9//1 12//1 11//1
f 8//1 12//1 9//1
f 8//1 13//1 12//1
f 7//1 13//1 8//1
f 7//1 14//1 13//1
f 25//1 45//1 26//1
f 6//1 14//1 7//1
f 25//1 46//1 45//1
f 6//1 15//1 14//1
f 5//1 15//1 6//1
f 5//1 16//1 15//1
f 4//1 16//1 5//1
f 24//1 46//1 25//1
f 24//1 47//1 46//1
f 4//1 17//1 16//1
f 3//1 17//1 4//1
f 23//1 47//1 24//1
f 3//1 18//1 17//1
f 23//1 48//1 47//1
f 2//1 18//1 3//1
f 22//1 48//1 23//1
f 2//1 19//1 18//1
f 22//1 49//1 48//1
f 21//1 49//1 22//1
f 1//1 19//1 2//1
f 1//1 20//1 19//1
f 20//1 49//1 21//1
f 1//1 49//1 20//1
f 1//1 50//1 49//1
f 323//1 50//1 1//1
f 256//1 258//1 257//1
f 256//1 259//1 258//1
f 323//1 51//1 50//1
f 255//1 259//1 256//1
f 255//1 260//1 259//1
f 322//1 51//1 323//1
f 246//1 248//1 247//1
f 246//1 249//1 248//1
f 246//1 250//1 249//1
f 245//1 250//1 246//1
f 254//1 260//1 255//1
f 245//1 251//1 250//1
f 245//1 252//1 251//1
f 253//1 260//1 254//1
f 244//1 252//1 245//1
f 253//1 261//1 260//1
f 244//1 253//1 252//1
f 244//1 261//1 253//1
f 243//1 261//1 244//1
f 322//1 52//1 51//1
f 321//1 52//1 322//1
f 243//1 262//1 261//1
f 242//1 262//1 243//1
f 320//1 52//1 321//1
f 242//1 263//1 262//1
f 241//1 263//1 242//1
f 320//1 53//1 52//1
f 319//1 53//1 320//1
f 240//1 263//1 241//1
f 240//1 264//1 263//1
f 318//1 53//1 319//1
f 318//1 54//1 53//1
f 317//1 54//1 318//1
f 316//1 54//1 317//1
f 315//1 54//1 316//1
f 240//1 265//1 264//1
f 314//1 54//1 315//1
f 239//1 265//1 240//1
f 313//1 54//1 314//1
f 312//1 54//1 313//1
f 312//1 55//1 54//1
f 311//1 55//1 312//1
f 310//1 55//1 311//1
f 309//1 55//1 310//1
f 239//1 266//1 265//1
f 238//1 266//1 239//1
f 308//1 55//1 309//1
f 308//1 56//1 55//1
f 307//1 56//1 308//1
f 238//1 267//1 266//1
f 306//1 56//1 307//1
f 306//1 57//1 56//1
f 237//1 267//1 238//1
f 237//1 268//1 267//1
f 305//1 57//1 306//1
f 305//1 58//1 57//1
f 236//1 268//1 237//1
f 304//1 58//1 305//1
f 236//1 269//1 268//1
f 303//1 58//1 304//1
f 303//1 59//1 58//1
f 235//1 269//1 236//1
f 235//1 270//1 269//1
f 302//1 59//1 303//1
f 302//1 60//1 59//1
f 235//1 271//1 270//1
f 301//1 60//1 302//1
f 234//1 271//1 235//1
f 301//1 61//1 60//1
f 300//1 61//1 301//1
f 234//1 272//1 271//1
f 233//1 272//1 234//1
f 299//1 61//1 300//1
f 233//1 273//1 272//1
f 299//1 62//1 61//1
f 298//1 62//1 299//1
f 232//1 273//1 233//1
f 232//1 274//1 273//1
f 297//1 62//1 298//1
f 297//1 63//1 62//1
f 232//1 275//1 274//1
f 296//1 63//1 297//1
f 231//1 275//1 232//1
f 231//1 276//1 275//1
f 296//1 64//1 63//1
f 295//1 64//1 296//1
f 231//1 277//1 276//1
f 294//1 64//1 295//1
f 231//1 278//1 277//1
f 230//1 278//1 231//1
f 230//1 279//1 278//1
f 293//1 64//1 294//1
f 286//1 288//1 287//1
f 230//1 280//1 279//1
f 285//1 288//1 286//1
f 285//1 289//1 288//1
f 284//1 289//1 285//1
f 283//1 289//1 284//1
f 230//1 281//1 280//1
f 293//1 65//1 64//1
f 282//1 289//1 283//1
f 282//1 290//1 289//1
f 230//1 282//1 281//1
f 230//1 290//1 282//1
f 292//1 65//1 293//1
f 230//1 291//1 290//1
f 291//1 65//1 292//1
f 230//1 65//1 291//1
f 229//1 65//1 230//1
f 229//1 66//1 65//1
f 228//1 66//1 229//1
f 228//1 67//1 66//1
f 227//1 67//1 228//1
f 227//1 68//1 67//1
f 226//1 68//1 227//1
f 226//1 69//1 68//1
f 225//1 69//1 226//1
f 224//1 69//1 225//1
f 224//1 70//1 69//1
f 223//1 70//1 224//1
f 223//1 71//1 70//1
f 222//1 71//1 223//1
f 221//1 71//1 222//1
f 221//1 72//1 71//1
f 220//1 72//1 221//1
f 220//1 73//1 72//1
f 219//1 73//1 220//1
f 218//1 73//1 219//1
f 218//1 74//1 73//1
f 217//1 74//1 218//1
f 216//1 74//1 217//1
f 216//1 75//1 74//1
f 215//1 75//1 216//1
f 215//1 76//1 75//1
f 214//1 76//1 215//1
f 213//1 76//1 214//1
f 213//1 77//1 76//1
f 212//1 77//1 213//1
f 212//1 78//1 77//1
f 211//1 78//1 212//1
f 211//1 79//1 78//1
f 210//1 79//1 211//1
f 209//1 79//1 210//1
f 209//1 80//1 79//1
f 208//1 80//1 209//1
f 208//1 81//1 80//1
f 207//1 81//1 208//1
f 206//1 81//1 207//1
f 206//1 82//1 81//1
f 205//1 82//1 206//1
f 205//1 83//1 82//1
f 204//1 83//1 205//1
f 204//1 84//1 83//1
f 203//1 84//1 204//1
f 202//1 84//1 203//1
f 202//1 85//1 84//1
f 202//1 86//1 85//1
f 201//1 86//1 202//1
f 201//1 87//1 86//1
f 200//1 87//1 201//1
f 200//1 88//1 87//1
f 200//1 89//1 88//1
f 199//1 89//1 200//1
f 199//1 90//1 89//1
f 199//1 91//1 90//1
f 199//1 92//1 91//1
f 199//1 93//1 92//1
f 199//1 94//1 93//1
f 199//1 95//1 94//1
f 199//1 96//1 95//1
f 198//1 96//1 199//1
f 198//1 97//1 96//1
f 198//1 98//1 97//1
f 198//1 99//1 98//1
f 198//1 100//1 99//1
f 198//1 101//1 100//1
f 198//1 102//1 101//1
f 197//1 102//1 198//1
f 197//1 103//1 102//1
f 197//1 104//1 103//1
f 196//1 104//1 197//1
f 196//1 105//1 104//1
f 196//1 106//1 105//1
f 195//1 106//1 196//1
f 195//1 107//1 106//1
f 195//1 108//1 107//1
f 194//1 108//1 195//1
f 194//1 109//1 108//1
f 193//1 109//1 194//1
f 193//1 110//1 109//1
f 192//1 110//1 193//1
f 192//1 111//1 110//1
f 191//1 111//1 192//1
f 191//1 112//1 111//1
f 191//1 113//1 112//1
f 190//1 113//1 191//1
f 190//1 114//1 113//1
f 189//1 114//1 190//1
f 189//1 115//1 114//1
f 188//1 115//1 189//1
f 188//1 116//1 115//1
f 187//1 116//1 188//1
f 187//1 117//1 116//1
f 186//1 117//1 187//1
f 186//1 118//1 117//1
f 186//1 119//1 118//1
f 185//1 119//1 186//1
f 185//1 120//1 119//1
f 184//1 120//1 185//1
f 184//1 121//1 120//1
f 184//1 122//1 121//1
f 183//1 122//1 184//1
f 183//1 123//1 122//1
f 183//1 124//1 123//1
f 182//1 124//1 183//1
f 182//1 125//1 124//1
f 182//1 126//1 125//1
f 182//1 127//1 126//1
f 182//1 128//1 127//1
f 182//1 129//1 128//1
f 182//1 130//1 129//1
f 182//1 131//1 130//1
f 181//1 131//1 182//1
f 181//1 132//1 131//1
f 181//1 133//1 132//1
f 181//1 134//1 133//1
f 181//1 135//1 134//1
f 181//1 136//1 135//1
f 181//1 137//1 136//1
f 180//1 137//1 181//1
f 180//1 138//1 137//1
f 180//1 139//1 138//1
f 179//1 139//1 180//1
f 179//1 140//1 139//1
f 179//1 141//1 140//1
f 178//1 141//1 179//1
f 178//1 142//1 141//1
f 177//1 142//1 178//1
f 177//1 143//1 142//1
f 177//1 144//1 143//1
f 176//1 144//1 177//1
f 176//1 145//1 144//1
f 175//1 145//1 176//1
f 175//1 146//1 145//1
f 174//1 146//1 175//1
f 173//1 146//1 174//1
f 173//1 147//1 146//1
f 172//1 147//1 173//1
f 172//1 148//1 147//1
f 171//1 148//1 172//1
f 170//1 148//1 171//1
f 169//1 148//1 170//1
f 169//1 149//1 148//1
f 168//1 149//1 169//1
f 167//1 149//1 168//1
f 166//1 149//1 167//1
f 166//1 150//1 149//1
f 165//1 150//1 166//1
f 164//1 150//1 165//1
f 164//1 151//1 150//1
f 163//1 151//1 164//1
f 162//1 151//1 163//1
f 162//1 152//1 151//1
f 161//1 152//1 162//1
f 160//1 152//1 161//1
f 160//1 153//1 152//1
f 159//1 153//1 160//1
f 158//1 153//1 159//1
f 158//1 154//1 153//1
f 157//1 154//1 158//1
f 156//1 154//1 157//1
f 156//1 155//1 154//1
