# Blender v2.80 (sub 74) OBJ File: 'MAP.blend'
# www.blender.org
mtllib mediterranean.mtl
o BezierCurve.001_BezierCurve.002
v -3.322925 1.725765 1.213161
v -3.196754 1.725765 1.102392
v -3.067406 1.725765 1.018700
v -2.933625 1.725765 0.960003
v -2.794154 1.725765 0.924220
v -2.647739 1.725765 0.909271
v -2.493125 1.725765 0.913074
v -2.329054 1.725765 0.933548
v -2.154273 1.725765 0.968613
v -1.967525 1.725765 1.016188
v -1.767554 1.725765 1.074191
v -1.553106 1.725765 1.140543
v -1.322925 1.725765 1.213161
v -1.096695 1.725765 1.287074
v -0.882551 1.725765 1.361275
v -0.677728 1.725765 1.434647
v -0.479463 1.725765 1.506073
v -0.284991 1.725765 1.574440
v -0.091547 1.725765 1.638630
v 0.103630 1.725765 1.697528
v 0.303307 1.725765 1.750018
v 0.510246 1.725765 1.794984
v 0.727211 1.725765 1.831310
v 0.956968 1.725765 1.857881
v 1.202279 1.725765 1.873581
v 1.418637 1.725765 1.870049
v 1.586647 1.725765 1.842597
v 1.713557 1.725765 1.794321
v 1.806611 1.725765 1.728320
v 1.873058 1.725765 1.647693
v 1.920142 1.725765 1.555537
v 1.955111 1.725765 1.454950
v 1.985211 1.725765 1.349030
v 2.017688 1.725765 1.240876
v 2.059788 1.725765 1.133585
v 2.118758 1.725765 1.030256
v 2.201847 1.725765 0.933986
v 2.303159 1.725765 0.842288
v 2.411183 1.725765 0.752055
v 2.524738 1.725765 0.665456
v 2.642641 1.725765 0.584659
v 2.763708 1.725765 0.511835
v 2.886757 1.725765 0.449151
v 3.010605 1.725765 0.398777
v 3.134069 1.725765 0.362881
v 3.255967 1.725765 0.343634
v 3.375115 1.725765 0.343203
v 3.490330 1.725765 0.363758
v 3.600431 1.725765 0.407468
v 3.721544 1.725765 0.475034
v 3.828071 1.725765 0.542883
v 3.922580 1.725765 0.611459
v 4.007639 1.725765 0.681203
v 4.085817 1.725765 0.752558
v 4.159683 1.725765 0.825967
v 4.231806 1.725765 0.901871
v 4.304752 1.725765 0.980713
v 4.381093 1.725765 1.062935
v 4.463396 1.725765 1.148979
v 4.554229 1.725765 1.239289
v 4.656161 1.725765 1.334305
v 4.747040 1.725765 1.441225
v 4.805774 1.725765 1.565053
v 4.836529 1.725765 1.702945
v 4.843467 1.725765 1.852054
v 4.830753 1.725765 2.009536
v 4.802551 1.725765 2.172545
v 4.763025 1.725765 2.338236
v 4.716338 1.725765 2.503764
v 4.666655 1.725765 2.666283
v 4.618138 1.725765 2.822949
v 4.574952 1.725765 2.970915
v 4.541262 1.725765 3.107336
v 4.509285 1.725765 3.242479
v 4.475477 1.725765 3.357909
v 4.439936 1.725765 3.456789
v 4.402759 1.725765 3.542279
v 4.364043 1.725765 3.617541
v 4.323886 1.725765 3.685736
v 4.282386 1.725765 3.750026
v 4.239638 1.725765 3.813570
v 4.195743 1.725765 3.879532
v 4.150795 1.725765 3.951072
v 4.104894 1.725765 4.031351
v 4.058135 1.725765 4.123530
v 4.008574 1.725765 4.217983
v 3.954459 1.725765 4.303448
v 3.896176 1.725765 4.380636
v 3.834110 1.725765 4.450259
v 3.768647 1.725765 4.513027
v 3.700173 1.725765 4.569652
v 3.629073 1.725765 4.620844
v 3.555733 1.725765 4.667315
v 3.480541 1.725765 4.709777
v 3.403879 1.725765 4.748940
v 3.326136 1.725765 4.785514
v 3.247697 1.725765 4.820211
v 3.146146 1.725765 4.851402
v 3.033847 1.725765 4.863428
v 2.912080 1.725765 4.858122
v 2.782123 1.725765 4.837313
v 2.645256 1.725765 4.802834
v 2.502758 1.725765 4.756515
v 2.355908 1.725765 4.700188
v 2.205985 1.725765 4.635683
v 2.054268 1.725765 4.564832
v 1.902037 1.725765 4.489466
v 1.750571 1.725765 4.411416
v 1.601149 1.725765 4.332514
v 1.443160 1.725765 4.249721
v 1.260354 1.725765 4.156535
v 1.055007 1.725765 4.054621
v 0.829395 1.725765 3.945642
v 0.585793 1.725765 3.831262
v 0.326477 1.725765 3.713147
v 0.053722 1.725765 3.592959
v -0.230195 1.725765 3.472363
v -0.522999 1.725765 3.353023
v -0.822415 1.725765 3.236603
v -1.126166 1.725765 3.124768
v -1.431978 1.725765 3.019181
v -1.728754 1.725765 2.919077
v -1.985863 1.725765 2.829794
v -2.209775 1.725765 2.749482
v -2.406962 1.725765 2.676292
v -2.583895 1.725765 2.608374
v -2.747044 1.725765 2.543878
v -2.902880 1.725765 2.480956
v -3.057875 1.725765 2.417757
v -3.218498 1.725765 2.352432
v -3.391222 1.725765 2.283131
v -3.582516 1.725765 2.208005
v -3.798852 1.725765 2.125205
v -3.993152 1.725765 2.043490
v -4.119172 1.725765 1.971181
v -4.184636 1.725765 1.905768
v -4.197265 1.725765 1.844740
v -4.164782 1.725765 1.785588
v -4.094909 1.725765 1.725801
v -3.995368 1.725765 1.662868
v -3.873881 1.725765 1.594279
v -3.738171 1.725765 1.517524
v -3.595960 1.725765 1.430093
v -3.454971 1.725765 1.329475
vn 0.0000 1.0000 0.0000
usemtl Material.001
s off
f 46//1 48//1 47//1
f 45//1 48//1 46//1
f 44//1 48//1 45//1
f 44//1 49//1 48//1
f 43//1 49//1 44//1
f 43//1 50//1 49//1
f 42//1 50//1 43//1
f 42//1 51//1 50//1
f 41//1 51//1 42//1
f 41//1 52//1 51//1
f 40//1 52//1 41//1
f 40//1 53//1 52//1
f 39//1 53//1 40//1
f 39//1 54//1 53//1
f 38//1 54//1 39//1
f 38//1 55//1 54//1
f 38//1 56//1 55//1
f 37//1 56//1 38//1
f 37//1 57//1 56//1
f 5//1 7//1 6//1
f 5//1 8//1 7//1
f 4//1 8//1 5//1
f 4//1 9//1 8//1
f 36//1 57//1 37//1
f 3//1 9//1 4//1
f 3//1 10//1 9//1
f 36//1 58//1 57//1
f 3//1 11//1 10//1
f 2//1 11//1 3//1
f 35//1 58//1 36//1
f 35//1 59//1 58//1
f 2//1 12//1 11//1
f 1//1 12//1 2//1
f 34//1 59//1 35//1
f 1//1 13//1 12//1
f 34//1 60//1 59//1
f 144//1 13//1 1//1
f 144//1 14//1 13//1
f 34//1 61//1 60//1
f 33//1 61//1 34//1
f 144//1 15//1 14//1
f 143//1 15//1 144//1
f 33//1 62//1 61//1
f 32//1 62//1 33//1
f 143//1 16//1 15//1
f 142//1 16//1 143//1
f 142//1 17//1 16//1
f 32//1 63//1 62//1
f 31//1 63//1 32//1
f 142//1 18//1 17//1
f 141//1 18//1 142//1
f 30//1 63//1 31//1
f 30//1 64//1 63//1
f 141//1 19//1 18//1
f 140//1 19//1 141//1
f 140//1 20//1 19//1
f 29//1 64//1 30//1
f 139//1 20//1 140//1
f 139//1 21//1 20//1
f 29//1 65//1 64//1
f 138//1 21//1 139//1
f 28//1 65//1 29//1
f 138//1 22//1 21//1
f 137//1 22//1 138//1
f 27//1 65//1 28//1
f 137//1 23//1 22//1
f 137//1 24//1 23//1
f 26//1 65//1 27//1
f 136//1 24//1 137//1
f 26//1 66//1 65//1
f 136//1 25//1 24//1
f 25//1 66//1 26//1
f 136//1 66//1 25//1
f 135//1 66//1 136//1
f 134//1 66//1 135//1
f 134//1 67//1 66//1
f 133//1 67//1 134//1
f 132//1 67//1 133//1
f 132//1 68//1 67//1
f 131//1 68//1 132//1
f 130//1 68//1 131//1
f 130//1 69//1 68//1
f 129//1 69//1 130//1
f 128//1 69//1 129//1
f 127//1 69//1 128//1
f 127//1 70//1 69//1
f 126//1 70//1 127//1
f 125//1 70//1 126//1
f 125//1 71//1 70//1
f 124//1 71//1 125//1
f 123//1 71//1 124//1
f 123//1 72//1 71//1
f 122//1 72//1 123//1
f 121//1 72//1 122//1
f 121//1 73//1 72//1
f 120//1 73//1 121//1
f 120//1 74//1 73//1
f 119//1 74//1 120//1
f 118//1 74//1 119//1
f 118//1 75//1 74//1
f 117//1 75//1 118//1
f 117//1 76//1 75//1
f 117//1 77//1 76//1
f 116//1 77//1 117//1
f 116//1 78//1 77//1
f 115//1 78//1 116//1
f 115//1 79//1 78//1
f 115//1 80//1 79//1
f 114//1 80//1 115//1
f 114//1 81//1 80//1
f 114//1 82//1 81//1
f 113//1 82//1 114//1
f 113//1 83//1 82//1
f 112//1 83//1 113//1
f 112//1 84//1 83//1
f 112//1 85//1 84//1
f 111//1 85//1 112//1
f 111//1 86//1 85//1
f 110//1 86//1 111//1
f 110//1 87//1 86//1
f 109//1 87//1 110//1
f 109//1 88//1 87//1
f 108//1 88//1 109//1
f 108//1 89//1 88//1
f 107//1 89//1 108//1
f 107//1 90//1 89//1
f 106//1 90//1 107//1
f 106//1 91//1 90//1
f 105//1 91//1 106//1
f 105//1 92//1 91//1
f 105//1 93//1 92//1
f 104//1 93//1 105//1
f 104//1 94//1 93//1
f 103//1 94//1 104//1
f 103//1 95//1 94//1
f 103//1 96//1 95//1
f 102//1 96//1 103//1
f 102//1 97//1 96//1
f 101//1 97//1 102//1
f 101//1 98//1 97//1
f 100//1 98//1 101//1
f 100//1 99//1 98//1
